<svg xmlns="http://www.w3.org/2000/svg" viewBox="0 0 36 24" role="img" aria-label="English">
  <rect width="36" height="24" rx="3" fill="#012169"/>
  <path d="M0 0h4.1L36 20.4V24h-4.1L0 3.6V0Zm36 0v3.6L4.1 24H0v-3.6L31.9 0H36Z" fill="#fff"/>
  <path d="M0 0h2.4L36 21.5V24h-2.4L0 2.5V0Zm36 0v2.5L2.4 24H0v-2.5L33.6 0H36Z" fill="#c8102e"/>
  <path d="M15 0h6v24h-6zM0 9h36v6H0z" fill="#fff"/>
  <path d="M16.3 0h3.4v24h-3.4zM0 10.3h36v3.4H0z" fill="#c8102e"/>
  <path d="M6 1.5h24c2.5 0 4.5 2 4.5 4.5v12c0 2.5-2 4.5-4.5 4.5H6c-2.5 0-4.5-2-4.5-4.5V6C1.5 3.5 3.5 1.5 6 1.5Z" fill="none" stroke="#2d1608" stroke-width="1.2"/>
</svg>
